<?xml version="1.0" encoding="UTF-8"?>
<svg xmlns="http://www.w3.org/2000/svg" version="1.1" viewBox="0 0 480 240">
  <defs>
    <style>
      .cls-1 {
        fill-rule: evenodd;
      }
    </style>
  </defs>
  <!-- Generator: Adobe Illustrator 28.6.0, SVG Export Plug-In . SVG Version: 1.2.0 Build 709)  -->
  <g>
    <g id="_Слой_1" data-name="Слой_1">
      <polygon class="cls-1" points="196.79 126.54 190.96 136.34 190.96 169.72 179.89 169.72 179.89 70.28 190.96 70.28 190.96 118.3 217.39 70.28 228.61 70.28 203.47 115.6 229.46 169.72 218.1 169.72 196.79 126.54"/>
      <rect x="346.81" y="70.28" width="11.08" height="99.44"/>
      <polygon class="cls-1" points="430.19 113.12 430.19 123.21 402.99 123.21 402.99 169.72 391.91 169.72 391.91 70.28 438.43 70.28 438.43 80.37 402.99 80.37 402.99 113.12 430.19 113.12"/>
      <polygon class="cls-1" points="285.82 80.37 268.87 169.72 258.51 169.72 277.65 70.28 298.03 70.28 317.17 169.72 306.8 169.72 289.86 80.37 285.82 80.37"/>
      <path class="cls-1" d="M68.59,117.14h3.98c1.2-1.44,3-4.24,3.38-8.34.37-3.97-.61-9.24-5.04-15.68-3.69-5.36-4.3-9.94-3.64-13.51.96-5.25,4.58-8.28,4.58-8.28l1.27-1.05h-4.09c-1.37,1.5-3.66,4.54-4.45,8.84-.75,4.11-.16,9.4,4.08,15.56,3.93,5.72,4.89,10.35,4.57,13.88-.46,5.01-3.51,7.63-3.51,7.63l-1.13.95h0ZM80.39,117.14l1.13-.95s3.05-2.63,3.51-7.63c.33-3.53-.64-8.16-4.57-13.88-4.24-6.16-4.83-11.45-4.08-15.56.79-4.3,3.08-7.34,4.45-8.84h4.08l-1.27,1.05s-3.62,3.03-4.58,8.28c-.65,3.58-.05,8.15,3.64,13.51,4.43,6.44,5.4,11.71,5.04,15.68-.38,4.1-2.18,6.89-3.38,8.34h-3.98ZM91.69,117.14h3.98c1.2-1.44,3-4.24,3.38-8.34.37-3.97-.61-9.24-5.04-15.68-3.69-5.36-4.3-9.94-3.64-13.51.96-5.25,4.58-8.28,4.58-8.28l1.27-1.05h-4.08c-1.37,1.5-3.66,4.54-4.45,8.84-.75,4.11-.16,9.4,4.08,15.56,3.93,5.72,4.89,10.35,4.57,13.88-.46,5.01-3.51,7.63-3.51,7.63l-1.13.95h0ZM103.49,117.14l1.13-.95s3.05-2.63,3.51-7.63c.32-3.53-.63-8.16-4.57-13.88-4.24-6.16-4.83-11.45-4.08-15.56.79-4.3,3.08-7.34,4.45-8.84h4.08l-1.27,1.05s-3.62,3.03-4.58,8.28c-.66,3.58-.04,8.15,3.64,13.51,4.43,6.44,5.4,11.71,5.04,15.68-.38,4.1-2.18,6.89-3.38,8.34h-3.98Z"/>
      <path class="cls-1" d="M142.24,143.75l2.66-.82c-.45-2.41-2.6-4.24-5.26-4.24-3.02,0-5.33,2.34-5.66,5.23-.54,4.76,3.19,9.44,9.36,9.44,5.34,0,9.77-4.19,9.92-9.32.22-7.33-5.77-13.3-13.39-13.3s-13.96,5.97-14.18,13.3c-.28,9.53,7.5,17.28,17.42,17.28s18.15-7.75,18.43-17.28c.34-11.73-9.24-21.26-21.44-21.26s-22.34,9.53-22.69,21.26c-.41,13.92,10.98,25.24,25.46,25.24,8.4,0,15.98-3.8,20.94-9.71l-1.96-1.85c-4.45,5.37-11.31,8.83-18.9,8.83-12.95,0-23.17-10.06-22.81-22.5.3-10.25,9.21-18.52,19.87-18.52s19.09,8.28,18.78,18.52c-.24,8.05-7.24,14.55-15.62,14.55s-15-6.5-14.76-14.55c.17-5.85,5.27-10.57,11.36-10.57s10.91,4.72,10.74,10.57c-.11,3.65-3.3,6.59-7.11,6.59-4.34,0-7.11-3.13-6.73-6.47.17-1.48,1.31-2.73,2.86-2.73,1.42,0,2.57,1,2.69,2.32Z"/>
      <path class="cls-1" d="M111.25,165.74l-11.22-7.45-12.25,8.13-12.25-8.13-11.22,7.45v3.28l11.22-7.45,12.28,8.15,6.25-4.18,5.98-3.97,11.22,7.45v-3.28h0ZM111.25,153.78l-11.22-7.45-12.25,8.13-12.25-8.13-11.22,7.45v3.28l11.22-7.45,12.28,8.15,6.25-4.19,5.98-3.97,11.22,7.45v-3.28h0ZM111.25,142.17l-11.22-7.45-12.25,8.13-12.25-8.13-11.22,7.45v3.28l11.22-7.45,12.28,8.15,6.25-4.18,5.98-3.97,11.22,7.45v-3.28h0ZM111.25,130.22l-11.22-7.45-12.25,8.13-12.25-8.13-11.22,7.45v3.28l11.22-7.45,12.28,8.15,6.25-4.18,5.98-3.97,11.22,7.45v-3.28Z"/>
      <path class="cls-1" d="M164.08,111.87v-3.21c-4.05-2.18-13.13-5.01-26.73,2.16-8.64,4.55-15.61,3.96-20.21,2.44v2.9c5.13,1.5,12.5,1.82,21.49-2.92,14.48-7.63,23.21-2.92,25.46-1.37h0ZM164.08,99.92c-2.25-1.54-10.98-6.25-25.46,1.37-8.99,4.73-16.36,4.42-21.49,2.92v-2.9c4.6,1.52,11.57,2.11,20.21-2.44,13.61-7.17,22.68-4.34,26.73-2.16v3.21h0ZM164.08,87.98v-3.21c-4.05-2.18-13.13-5.01-26.73,2.16-8.64,4.55-15.61,3.96-20.21,2.44v2.9c5.13,1.5,12.5,1.82,21.49-2.92,14.48-7.62,23.21-2.91,25.46-1.37h0ZM164.08,76.04c-2.25-1.54-10.98-6.26-25.46,1.37-8.99,4.73-16.36,4.42-21.49,2.92v-2.9c4.6,1.52,11.57,2.11,20.21-2.44,13.61-7.17,22.68-4.34,26.73-2.16v3.21Z"/>
    </g>
  </g>
</svg>